<svg width="50" height="35" viewBox="0 0 50 35" fill="none" xmlns="http://www.w3.org/2000/svg">
<rect width="50" height="35" rx="6" fill="black"/>
<path fill-rule="evenodd" clip-rule="evenodd" d="M23.8839 24.9349C22.1817 26.4345 19.9736 27.3398 17.5607 27.3398C12.1769 27.3398 7.8125 22.8327 7.8125 17.2729C7.8125 11.7131 12.1769 7.20605 17.5607 7.20605C19.9736 7.20605 22.1817 8.11132 23.8839 9.61089C25.5862 8.11132 27.7943 7.20605 30.2071 7.20605C35.5909 7.20605 39.9554 11.7131 39.9554 17.2729C39.9554 22.8327 35.5909 27.3398 30.2071 27.3398C27.7943 27.3398 25.5862 26.4345 23.8839 24.9349Z" fill="#ED0006"/>
<path fill-rule="evenodd" clip-rule="evenodd" d="M23.8838 24.9349C25.9798 23.0885 27.3088 20.341 27.3088 17.2729C27.3088 14.2048 25.9798 11.4573 23.8838 9.61089C25.586 8.11132 27.7941 7.20605 30.207 7.20605C35.5908 7.20605 39.9552 11.7131 39.9552 17.2729C39.9552 22.8327 35.5908 27.3398 30.207 27.3398C27.7941 27.3398 25.586 26.4345 23.8838 24.9349Z" fill="#F9A000"/>
<path fill-rule="evenodd" clip-rule="evenodd" d="M23.884 9.61084C25.98 11.4573 27.309 14.2048 27.309 17.2728C27.309 20.3409 25.98 23.0884 23.884 24.9348C21.788 23.0884 20.459 20.3409 20.459 17.2728C20.459 14.2048 21.788 11.4573 23.884 9.61084Z" fill="#FF5E00"/>
</svg>
