<svg width="50" height="35" viewBox="0 0 50 35" fill="none" xmlns="http://www.w3.org/2000/svg">
<rect width="50" height="35" rx="6" fill="#172B85"/>
<path fill-rule="evenodd" clip-rule="evenodd" d="M15.1791 23.7101H12.15L9.87864 14.864C9.77083 14.4571 9.54192 14.0974 9.2052 13.9278C8.36487 13.5017 7.43888 13.1626 6.42871 12.9916V12.651H11.3082C11.9817 12.651 12.4868 13.1626 12.571 13.7568L13.7495 20.1378L16.777 12.651H19.7219L15.1791 23.7101ZM21.4055 23.7101H18.5448L20.9004 12.651H23.7611L21.4055 23.7101ZM27.4621 15.7147C27.5463 15.1191 28.0514 14.7785 28.6406 14.7785C29.5666 14.693 30.5753 14.864 31.4171 15.2887L31.9222 12.9076C31.0804 12.567 30.1544 12.396 29.3141 12.396C26.5376 12.396 24.5172 13.9278 24.5172 16.0538C24.5172 17.6712 25.9483 18.5204 26.9585 19.032C28.0514 19.5421 28.4723 19.8827 28.3881 20.3928C28.3881 21.158 27.5463 21.4986 26.7059 21.4986C25.6958 21.4986 24.6856 21.2435 23.7611 20.8175L23.256 23.2C24.2662 23.6246 25.359 23.7956 26.3692 23.7956C29.4824 23.8797 31.4171 22.3493 31.4171 20.0523C31.4171 17.1596 27.4621 16.9901 27.4621 15.7147ZM41.4287 23.7101L39.1573 12.651H36.7175C36.2125 12.651 35.7074 12.9916 35.539 13.5017L31.3329 23.7101H34.2778L34.8656 22.0942H38.4839L38.8206 23.7101H41.4287ZM37.1384 15.6292L37.9788 19.7972H35.6232L37.1384 15.6292Z" fill="white"/>
</svg>
